<mxfile host="app.diagrams.net" agent="Mozilla/5.0 (Windows NT 10.0; Win64; x64) AppleWebKit/537.36 (KHTML, like Gecko) Chrome/133.0.0.0 Safari/537.36" version="26.0.16">
  <diagram id="prtHgNgQTEPvFCAcTncT" name="Page-1">
    <mxGraphModel dx="880" dy="1595" grid="1" gridSize="10" guides="1" tooltips="1" connect="1" arrows="1" fold="1" page="1" pageScale="1" pageWidth="827" pageHeight="1169" math="0" shadow="0">
      <root>
        <mxCell id="0" />
        <mxCell id="1" parent="0" />
        <mxCell id="K_gAuLsXy9iQtgz8dyDz-9" value="Autoencoder" style="rounded=0;whiteSpace=wrap;html=1;fillColor=none;" parent="1" vertex="1">
          <mxGeometry x="130" y="-730" width="350" height="220" as="geometry" />
        </mxCell>
        <mxCell id="K_gAuLsXy9iQtgz8dyDz-15" value="" style="rounded=0;whiteSpace=wrap;html=1;fillColor=none;" parent="1" vertex="1">
          <mxGeometry x="520" y="-800" width="200" height="320" as="geometry" />
        </mxCell>
        <mxCell id="K_gAuLsXy9iQtgz8dyDz-2" value="traffic database" style="shape=datastore;whiteSpace=wrap;html=1;fillColor=#e1d5e7;strokeColor=#9673a6;" parent="1" vertex="1">
          <mxGeometry x="10" y="-660" width="60" height="60" as="geometry" />
        </mxCell>
        <mxCell id="K_gAuLsXy9iQtgz8dyDz-3" value="encoder" style="shape=trapezoid;perimeter=trapezoidPerimeter;whiteSpace=wrap;html=1;fixedSize=1;direction=south;fillColor=#d5e8d4;strokeColor=#82b366;" parent="1" vertex="1">
          <mxGeometry x="140" y="-675" width="80" height="85" as="geometry" />
        </mxCell>
        <mxCell id="K_gAuLsXy9iQtgz8dyDz-4" value="decoder" style="shape=trapezoid;perimeter=trapezoidPerimeter;whiteSpace=wrap;html=1;fixedSize=1;direction=north;fillColor=#d5e8d4;strokeColor=#82b366;" parent="1" vertex="1">
          <mxGeometry x="374" y="-675" width="80" height="85" as="geometry" />
        </mxCell>
        <mxCell id="K_gAuLsXy9iQtgz8dyDz-5" value="latent space" style="rounded=0;whiteSpace=wrap;html=1;fillColor=#d5e8d4;strokeColor=#82b366;" parent="1" vertex="1">
          <mxGeometry x="260" y="-652.5" width="80" height="40" as="geometry" />
        </mxCell>
        <mxCell id="K_gAuLsXy9iQtgz8dyDz-6" value="feedback discriminator" style="rounded=0;whiteSpace=wrap;html=1;fillColor=#f8cecc;strokeColor=#b85450;" parent="1" vertex="1">
          <mxGeometry x="560" y="-760" width="120" height="60" as="geometry" />
        </mxCell>
        <mxCell id="K_gAuLsXy9iQtgz8dyDz-16" value="" style="edgeStyle=orthogonalEdgeStyle;rounded=0;orthogonalLoop=1;jettySize=auto;html=1;" parent="1" source="K_gAuLsXy9iQtgz8dyDz-9" target="K_gAuLsXy9iQtgz8dyDz-15" edge="1">
          <mxGeometry relative="1" as="geometry" />
        </mxCell>
        <mxCell id="K_gAuLsXy9iQtgz8dyDz-7" value="RL agent(IDS)" style="rounded=0;whiteSpace=wrap;html=1;fillColor=#ffe6cc;strokeColor=#d79b00;" parent="1" vertex="1">
          <mxGeometry x="560" y="-580" width="120" height="60" as="geometry" />
        </mxCell>
        <mxCell id="K_gAuLsXy9iQtgz8dyDz-8" value="random vector" style="rounded=0;whiteSpace=wrap;html=1;fillColor=#d5e8d4;strokeColor=#82b366;" parent="1" vertex="1">
          <mxGeometry x="10" y="-560" width="80" height="20" as="geometry" />
        </mxCell>
        <mxCell id="K_gAuLsXy9iQtgz8dyDz-10" value="" style="endArrow=classic;html=1;rounded=0;entryX=0.659;entryY=0.963;entryDx=0;entryDy=0;entryPerimeter=0;exitX=1;exitY=0.7;exitDx=0;exitDy=0;" parent="1" edge="1">
          <mxGeometry width="50" height="50" relative="1" as="geometry">
            <mxPoint x="70" y="-632.02" as="sourcePoint" />
            <mxPoint x="142.96000000000004" y="-633.0049999999999" as="targetPoint" />
          </mxGeometry>
        </mxCell>
        <mxCell id="K_gAuLsXy9iQtgz8dyDz-11" value="" style="endArrow=classic;html=1;rounded=0;exitX=0.875;exitY=0;exitDx=0;exitDy=0;exitPerimeter=0;entryX=0.871;entryY=1.038;entryDx=0;entryDy=0;entryPerimeter=0;" parent="1" source="K_gAuLsXy9iQtgz8dyDz-8" target="K_gAuLsXy9iQtgz8dyDz-3" edge="1">
          <mxGeometry width="50" height="50" relative="1" as="geometry">
            <mxPoint x="120" y="-584" as="sourcePoint" />
            <mxPoint x="130" y="-610" as="targetPoint" />
            <Array as="points">
              <mxPoint x="80" y="-600" />
            </Array>
          </mxGeometry>
        </mxCell>
        <mxCell id="K_gAuLsXy9iQtgz8dyDz-12" value="" style="endArrow=classic;html=1;rounded=0;entryX=0;entryY=0.5;entryDx=0;entryDy=0;" parent="1" target="K_gAuLsXy9iQtgz8dyDz-5" edge="1">
          <mxGeometry width="50" height="50" relative="1" as="geometry">
            <mxPoint x="220" y="-631" as="sourcePoint" />
            <mxPoint x="250" y="-630" as="targetPoint" />
          </mxGeometry>
        </mxCell>
        <mxCell id="K_gAuLsXy9iQtgz8dyDz-13" value="" style="endArrow=classic;html=1;rounded=0;" parent="1" target="K_gAuLsXy9iQtgz8dyDz-4" edge="1">
          <mxGeometry width="50" height="50" relative="1" as="geometry">
            <mxPoint x="340" y="-627" as="sourcePoint" />
            <mxPoint x="380" y="-637.87" as="targetPoint" />
            <Array as="points">
              <mxPoint x="360" y="-627" />
            </Array>
          </mxGeometry>
        </mxCell>
        <mxCell id="K_gAuLsXy9iQtgz8dyDz-17" value="" style="endArrow=classic;html=1;rounded=0;entryX=0.531;entryY=-0.018;entryDx=0;entryDy=0;entryPerimeter=0;" parent="1" source="K_gAuLsXy9iQtgz8dyDz-6" target="K_gAuLsXy9iQtgz8dyDz-9" edge="1">
          <mxGeometry width="50" height="50" relative="1" as="geometry">
            <mxPoint x="490" y="-740" as="sourcePoint" />
            <mxPoint x="320" y="-820" as="targetPoint" />
            <Array as="points">
              <mxPoint x="620" y="-830" />
              <mxPoint x="560" y="-830" />
              <mxPoint x="316" y="-830" />
            </Array>
          </mxGeometry>
        </mxCell>
        <mxCell id="C7-epclAfnM6-NuBJ3NB-1" value="Autoencoder" style="rounded=0;whiteSpace=wrap;html=1;fontStyle=1" vertex="1" parent="1">
          <mxGeometry x="130" y="-760" width="160" height="30" as="geometry" />
        </mxCell>
      </root>
    </mxGraphModel>
  </diagram>
</mxfile>
